<?xml version="1.0" encoding="UTF-8"?>
<svg width="12px" height="13px" viewBox="0 0 12 13" version="1.1" xmlns="http://www.w3.org/2000/svg" xmlns:xlink="http://www.w3.org/1999/xlink">
    <title>Untitled</title>
    <g id="Page-1" stroke="none" stroke-width="1" fill="none" fill-rule="evenodd">
        <g id="arrow-next" fill="#444444" fill-rule="nonzero">
            <path d="M8.59,5.999 L5.29,2.709 C5.03634142,2.45534143 4.93727646,2.08562601 5.03012194,1.73912195 C5.12296742,1.39261789 5.39361789,1.12196742 5.74012195,1.02912194 C6.08662601,0.936276458 6.45634143,1.03534142 6.71,1.289 L11.71,6.289 C11.8,6.384 11.872,6.496 11.92,6.619 C12.020018,6.86246136 12.020018,7.13553864 11.92,7.379 C11.8725956,7.50184731 11.801208,7.61402771 11.71,7.709 L6.71,12.709 C6.5222334,12.8983127 6.26663754,13.0047983 6,13.0047983 C5.73336246,13.0047983 5.4777666,12.8983127 5.29,12.709 C5.10068735,12.5212334 4.99420168,12.2656375 4.99420168,11.999 C4.99420168,11.7323625 5.10068735,11.4767666 5.29,11.289 L8.59,8 L1,8 C0.44771525,8 0,7.55228475 0,7 C0,6.44771525 0.44771525,6 1,6 L8.59,5.999 Z" id="Path"></path>
        </g>
    </g>
</svg>