<svg xmlns="http://www.w3.org/2000/svg" width="29" height="23" viewBox="0 0 29 23"><g><g><path fill="#efd8c9" d="M2.455 22.558A14.309 14.309 0 0 1 .006 14.5C.006 6.504 6.508 0 14.5 0c7.992 0 14.493 6.505 14.493 14.5a14.31 14.31 0 0 1-2.449 8.06.998.998 0 0 1-.827.439.998.998 0 0 1-.833-1.56c3.475-5.198 2.552-12.224-2.145-16.347a12.487 12.487 0 0 0-16.478 0C1.563 9.214.64 16.241 4.114 21.436a.998.998 0 0 1-.27 1.393 1 1 0 0 1-1.389-.27zm9.046-2.551a1.011 1.011 0 0 1-1.008-1.009c0-.269.104-.52.296-.71l1.374-1.376-.075-.278a2.637 2.637 0 0 1-.087-.642 2.5 2.5 0 0 1 2.498-2.494c.208.003.425.033.637.09l.278.073 4.371-4.374a1.001 1.001 0 0 1 1.422 0 1.01 1.01 0 0 1 0 1.424l-4.372 4.373.075.279c.056.208.085.424.088.642a2.5 2.5 0 0 1-2.499 2.493 2.588 2.588 0 0 1-.636-.089l-.278-.074-1.373 1.375c-.188.19-.447.297-.711.297z"/></g></g></svg>