<svg xmlns="http://www.w3.org/2000/svg" width="54" height="54" viewBox="0 0 54 54"><defs><clipPath id="sjzia"><path fill="#fff" d="M27 0c14.912 0 27 12.088 27 27 0 14.911-12.088 27-27 27S0 41.91 0 27C0 12.088 12.088 0 27 0z"/></clipPath></defs><g><g><path fill="#222" d="M27 0c14.912 0 27 12.088 27 27 0 14.911-12.088 27-27 27S0 41.91 0 27C0 12.088 12.088 0 27 0z"/><path fill="none" stroke="#444" stroke-miterlimit="20" stroke-width="2" d="M27 0v0c14.912 0 27 12.088 27 27v0c0 14.911-12.088 27-27 27v0C12.088 54 0 41.91 0 27v0C0 12.088 12.088 0 27 0z" clip-path="url(&quot;#sjzia&quot;)"/></g><g><path fill="#fff" d="M26 35a1 1 0 0 1 0 2h-5a3 3 0 0 1-3-3V20a3 3 0 0 1 3-3h6.06l.32.11a.318.318 0 0 1 .09 0c.102.048.197.112.28.19l6 6c.078.083.141.177.19.28v.09c.03.087.05.178.06.27V25a1 1 0 0 1-2 0h-3a3 3 0 0 1-3-3v-3h-5a1 1 0 0 0-1 1v14a1 1 0 0 0 1 1zm2-13a1 1 0 0 0 1 1h1.59L28 20.41V22zm-4 1a1 1 0 0 1 0 2h-1a1 1 0 1 1 0-2h1zm12.63 5.86a1 1 0 0 1 .37.77V32a4.6 4.6 0 0 1-1.84 3.64L33.6 36.8a1 1 0 0 1-1.2 0l-1.56-1.11A4.6 4.6 0 0 1 29 32v-2.34a1 1 0 0 1 1.21-1c.766.16 1.565-.01 2.2-.47a1 1 0 0 1 1.18 0 2.77 2.77 0 0 0 2.2.47 1 1 0 0 1 .84.2zM35 30.72a4.678 4.678 0 0 1-2-.55c-.617.33-1.3.518-2 .55V32a2.62 2.62 0 0 0 1 2.09l1 .72 1-.72A2.62 2.62 0 0 0 35 32v-1.28zm-9 .33a1 1 0 0 1 0 2h-3a1 1 0 1 1 0-2zm1-4a1 1 0 1 1 0 2h-4a1 1 0 0 1 0-2z"/></g></g></svg>