<svg xmlns="http://www.w3.org/2000/svg" width="54" height="54" viewBox="0 0 54 54"><defs><clipPath id="ykhoa"><path fill="#fff" d="M27 0c14.912 0 27 12.088 27 27S41.912 54 27 54 0 41.912 0 27 12.088 0 27 0z"/></clipPath></defs><g><g><path fill="#222" d="M27 0c14.912 0 27 12.088 27 27S41.912 54 27 54 0 41.912 0 27 12.088 0 27 0z"/><path fill="none" stroke="#444" stroke-miterlimit="20" stroke-width="2" d="M27 0v0c14.912 0 27 12.088 27 27v0c0 14.912-12.088 27-27 27v0C12.088 54 0 41.912 0 27v0C0 12.088 12.088 0 27 0z" clip-path="url(&quot;#ykhoa&quot;)"/></g><g><path fill="#fff" d="M19.93 32.66a1 1 0 1 1 1.41 1.42 1 1 0 0 1-1.41-1.42zm14.14-11.32a1 1 0 1 1-1.41-1.418 1 1 0 0 1 1.41 1.418zm-12.73 0a1 1 0 1 1-1.41-1.418 1 1 0 0 1 1.41 1.418zm11.32 11.32a1 1 0 1 1 1.41 1.42 1 1 0 0 1-1.41-1.42zM36 26a1 1 0 0 1 0 2h-1.59l1.3 1.29a1 1 0 0 1 0 1.42.999.999 0 0 1-1.42 0L31.59 28h-2.18l2.3 2.29a1 1 0 0 1 0 1.42.999.999 0 0 1-1.42 0L28 29.41v2.18l2.71 2.7a1 1 0 0 1 0 1.42.999.999 0 0 1-1.42 0L28 34.41V36a1 1 0 0 1-2 0v-1.59l-1.29 1.3a1.003 1.003 0 1 1-1.42-1.42l2.71-2.7v-2.18l-2.29 2.3a.999.999 0 0 1-1.42 0 1 1 0 0 1 0-1.42l2.3-2.29h-2.18l-2.7 2.71a.999.999 0 0 1-1.42 0 1 1 0 0 1 0-1.42l1.3-1.29H18a1 1 0 1 1 0-2h1.59l-1.3-1.29a1.004 1.004 0 1 1 1.42-1.42l2.7 2.71h2.18l-2.3-2.29a1.004 1.004 0 0 1 1.42-1.42l2.29 2.3v-2.18l-2.71-2.7a1.004 1.004 0 1 1 1.42-1.42l1.29 1.3V18a1 1 0 0 1 2 0v1.59l1.29-1.3a1.004 1.004 0 0 1 1.42 1.42L28 22.41v2.18l2.29-2.3a1.004 1.004 0 1 1 1.42 1.42L29.41 26h2.18l2.7-2.71a1.004 1.004 0 0 1 1.42 1.42L34.41 26z"/></g></g></svg>