<svg xmlns="http://www.w3.org/2000/svg" width="54" height="54" viewBox="0 0 54 54"><defs><clipPath id="wjmka"><path fill="#fff" d="M27 0c14.912 0 27 12.088 27 27S41.912 54 27 54 0 41.912 0 27 12.088 0 27 0z"/></clipPath></defs><g><g><path fill="#222" d="M27 0c14.912 0 27 12.088 27 27S41.912 54 27 54 0 41.912 0 27 12.088 0 27 0z"/><path fill="none" stroke="#444" stroke-miterlimit="20" stroke-width="2" d="M27 0v0c14.912 0 27 12.088 27 27v0c0 14.912-12.088 27-27 27v0C12.088 54 0 41.912 0 27v0C0 12.088 12.088 0 27 0z" clip-path="url(&quot;#wjmka&quot;)"/></g><g><path fill="#fff" d="M27.3 27.219a8 8 0 0 1 4.7 7.28 1 1 0 0 1-2 0 6 6 0 0 0-12 0 1 1 0 1 1-2 0 8 8 0 0 1 4.7-7.28 4.92 4.92 0 0 1-1.7-3.72 5 5 0 0 1 10 0 4.92 4.92 0 0 1-1.7 3.72zm-3.3-.72a3 3 0 1 0 0-6 3 3 0 0 0 0 6zm9.74.32a9 9 0 0 1 4.23 7.68 1 1 0 1 1-2 0 7 7 0 0 0-4-6.38l-.13-.07-.39-.26a1.001 1.001 0 0 1 .05-1.7 3 3 0 0 0 1.5-2.59 3 3 0 0 0-3-3 1 1 0 0 1 0-2 5 5 0 0 1 3.74 8.32z"/></g></g></svg>