<svg xmlns="http://www.w3.org/2000/svg" width="54" height="54" viewBox="0 0 54 54"><defs><clipPath id="z1u2a"><path fill="#fff" d="M27 0c14.912 0 27 12.088 27 27S41.912 54 27 54 0 41.912 0 27 12.088 0 27 0z"/></clipPath></defs><g><g><path fill="#222" d="M27 0c14.912 0 27 12.088 27 27S41.912 54 27 54 0 41.912 0 27 12.088 0 27 0z"/><path fill="none" stroke="#444" stroke-miterlimit="20" stroke-width="2" d="M27 0v0c14.912 0 27 12.088 27 27v0c0 14.912-12.088 27-27 27v0C12.088 54 0 41.912 0 27v0C0 12.088 12.088 0 27 0z" clip-path="url(&quot;#z1u2a&quot;)"/></g><g><path fill="#fff" d="M17 32v-6-.06c.01-.092.03-.182.06-.27v-.09a1.08 1.08 0 0 1 .19-.28l6-6a1.07 1.07 0 0 1 .28-.19.318.318 0 0 1 .09 0 .881.881 0 0 1 .33-.11H34a3 3 0 0 1 3 3v10a3 3 0 0 1-3 3H20a3 3 0 0 1-3-3zm14-2a1 1 0 0 1 1-1h3v-1H19v4a1 1 0 0 0 1 1h14a1 1 0 0 0 1-1v-1h-3a1 1 0 0 1-1-1zm-12-4h16v-4a1 1 0 0 0-1-1H24z"/></g></g></svg>