<?xml version="1.0" encoding="UTF-8"?>
<svg width="56px" height="56px" viewBox="0 0 56 56" version="1.1" xmlns="http://www.w3.org/2000/svg" xmlns:xlink="http://www.w3.org/1999/xlink">
    <title>socials-1-1</title>
    <g id="Page-1" stroke="none" stroke-width="1" fill="none" fill-rule="evenodd">
        <g id="socials-3" transform="translate(1.000000, 1.000000)">
            <g id="Group">
                <path d="M27,0 C41.912,0 54,12.088 54,27 C54,41.911 41.912,54 27,54 C12.088,54 0,41.911 0,27 C0,12.088 12.088,0 27,0 Z" id="Path" fill-rule="nonzero"></path>
                <path d="M27,0 L27,0 C41.912,0 54,12.088 54,27 L54,27 C54,41.911 41.912,54 27,54 L27,54 C12.088,54 0,41.911 0,27 L0,27 C0,12.088 12.088,0 27,0 Z" id="Path" stroke="#17BEBB" stroke-width="2"></path>
            </g>
            <path d="M22.08,36.42 L16,38.01 L17.6,32.096 C16.5686857,30.3760001 16.0162579,28.4114288 16,26.406 C16.017,20.116 21.152,15.026 27.482,15.0239987 C33.812,15.021 38.952,20.106 38.9760775,26.394 C38.999,32.684 33.898,37.807 27.568,37.85 C25.647706,37.8409968 23.7605061,37.349252 22.08,36.42 L22.08,36.42 Z M27.568,16.979 C24.1220936,17.0138276 20.958627,18.8910747 19.277,21.899 C17.6051377,24.8988778 17.6854618,28.5681583 19.487,31.492 L19.712,31.858 L18.752,35.339 L22.4,34.353 L22.752,34.56 C24.2090177,35.41223 25.8640909,35.8673752 27.552,35.88 C32.853,35.88 37.152,31.61 37.152,26.342 C37.152,21.074 32.853,16.804 27.552,16.804 L27.568,16.979 Z M33.168,30.523 C32.7421303,31.2260776 32.0389478,31.7164166 31.232,31.873 C30.6345478,31.9815747 30.0196873,31.9438322 29.44,31.763 C28.895,31.593 28.36,31.392 27.84,31.158 C25.8646951,30.1742096 24.1779115,28.6955178 22.944,26.866 C22.2755057,26.0213253 21.8694138,24.999142 21.776,23.926 C21.7572031,23.0237628 22.1238371,22.1562806 22.784,21.541 C22.978,21.321 23.257,21.195 23.552,21.191 L24,21.191 C24.176,21.191 24.416,21.191 24.64,21.684 C24.864,22.177 25.456,23.655 25.536,23.798 C25.616,23.953 25.616,24.137 25.536,24.291 C25.465,24.464 25.368,24.625 25.248,24.768 C25.104,24.943 24.944,25.149 24.816,25.277 C24.688,25.404 24.528,25.563 24.688,25.849 C25.123,26.579 25.662,27.243 26.288,27.82 C26.9702694,28.4188168 27.7493666,28.8972988 28.592,29.235 C28.88,29.378 29.056,29.362 29.216,29.235 C29.376,29.108 29.936,28.408 30.128,28.122 C30.32,27.836 30.512,27.884 30.768,27.979 C31.024,28.074 32.448,28.758 32.736,28.901 C33.024,29.044 33.2,29.108 33.28,29.235 C33.35,29.651 33.31,30.077 33.168,30.475 L33.168,30.523 L33.168,30.523 Z" id="Shape" fill="#17BEBB" fill-rule="nonzero"></path>
        </g>
    </g>
</svg>