<svg xmlns="http://www.w3.org/2000/svg" width="54" height="54" viewBox="0 0 54 54"><defs><clipPath id="gcyxa"><path fill="#fff" d="M27 0c14.912 0 27 12.088 27 27 0 14.911-12.088 27-27 27S0 41.911 0 27C0 12.088 12.088 0 27 0z"/></clipPath></defs><g><g><path fill="#222" d="M27 0c14.912 0 27 12.088 27 27 0 14.911-12.088 27-27 27S0 41.911 0 27C0 12.088 12.088 0 27 0z"/><path fill="none" stroke="#444" stroke-miterlimit="20" stroke-width="2" d="M27 0h0c14.912 0 27 12.088 27 27v0c0 14.911-12.088 27-27 27h0C12.088 54 0 41.911 0 27v0C0 12.088 12.088 0 27 0z" clip-path="url(&quot;#gcyxa&quot;)"/></g><g><path fill="#444" d="M36 36H18c-1.967 0-2.979-1.112-3-2.941V20.94c.021-1.829 1.033-2.94 3-2.94h18c1.988 0 3 1.136 3 3v12c0 1.864-1.012 3-3 3zm1-15c0-.645-.526-1-1.182-1H18c-.656 0-1 .355-1 1v12c0 .644.344 1 1 1h18c.656 0 1.006-.523 1.006-1.167 0 0-.006-.167-.006-11.833zm-10.446 8.846a.968.968 0 0 1-.518.153.992.992 0 0 1-.733-.333 1.2 1.2 0 0 1-.303-.807v-3.706c-.004-.41.191-.79.513-.997a.955.955 0 0 1 1.041-.004L29.481 26v.027c.32.204.518.58.518.987 0 .406-.197.782-.518.986l-2.927 1.847z"/></g></g></svg>