<?xml version="1.0" encoding="UTF-8"?>
<svg width="56px" height="56px" viewBox="0 0 56 56" version="1.1" xmlns="http://www.w3.org/2000/svg" xmlns:xlink="http://www.w3.org/1999/xlink">
    <title>socials-1-1</title>
    <g id="Page-1" stroke="none" stroke-width="1" fill="none" fill-rule="evenodd">
        <g id="socials-2" transform="translate(1.000000, 1.000000)">
            <g id="Group">
                <path d="M27,0 C41.912,0 54,12.088 54,27 C54,41.911 41.912,54 27,54 C12.088,54 0,41.911 0,27 C0,12.088 12.088,0 27,0 Z" id="Path" fill-rule="nonzero"></path>
                <path d="M27,0 L27,0 C41.912,0 54,12.088 54,27 L54,27 C54,41.911 41.912,54 27,54 L27,54 C12.088,54 0,41.911 0,27 L0,27 C0,12.088 12.088,0 27,0 Z" id="Path" stroke="#17BEBB" stroke-width="2"></path>
            </g>
            <path d="M36,36 L18,36 C16.033,36 15.021,34.888 15,33.059 L15,20.94 C15.021,19.111 16.033,18 18,18 L36,18 C37.988,18 39,19.136 39,21 L39,33 C39,34.864 37.988,36 36,36 Z M37,21 C37,20.355 36.474,20 35.818,20 L18,20 C17.344,20 17,20.355 17,21 L17,33 C17,33.644 17.344,34 18,34 L36,34 C36.656,34 37.006,33.477 37.006,32.833 C37.006,32.833 37,32.666 37,21 Z M26.554,29.846 C26.3993473,29.9451149 26.219686,29.9981809 26.036,29.999 C25.7555819,29.9965955 25.4892823,29.8756162 25.303,29.666 C25.1055345,29.4438129 24.9975624,29.1562436 25,28.859 L25,25.153 C24.996,24.743 25.191,24.363 25.513,24.156 C25.8287106,23.9490356 26.2367082,23.9474679 26.554,24.152 L29.481,26 L29.481,26.027 C29.801,26.231 29.999,26.607 29.999,27.014 C29.999,27.42 29.802,27.796 29.481,28 L26.554,29.847 L26.554,29.846 Z" id="Shape" fill="#17BEBB" fill-rule="nonzero"></path>
        </g>
    </g>
</svg>