<?xml version="1.0" encoding="UTF-8"?>
<svg width="56px" height="56px" viewBox="0 0 56 56" version="1.1" xmlns="http://www.w3.org/2000/svg" xmlns:xlink="http://www.w3.org/1999/xlink">
    <title>socials-1-1</title>
    <g id="Page-1" stroke="none" stroke-width="1" fill="none" fill-rule="evenodd">
        <g id="socials-4" transform="translate(1.000000, 1.000000)">
            <g id="Group">
                <path d="M27,0 C41.912,0 54,12.088 54,27 C54,41.911 41.912,54 27,54 C12.088,54 0,41.911 0,27 C0,12.088 12.088,0 27,0 Z" id="Path" fill-rule="nonzero"></path>
                <path d="M27,0 L27,0 C41.912,0 54,12.088 54,27 L54,27 C54,41.911 41.912,54 27,54 L27,54 C12.088,54 0,41.911 0,27 L0,27 C0,12.088 12.088,0 27,0 Z" id="Path" stroke="#17BEBB" stroke-width="2"></path>
            </g>
            <path d="M32,22 C31.4477153,22 31,21.5522847 31,21 C31,20.4477153 31.4477153,20 32,20 L33,20 L33,19 C33,18.4477153 33.4477153,18 34,18 C34.5522847,18 35,18.4477153 35,19 L35,20 L36,20 C36.5522847,20 37,20.4477153 37,21 C37,21.5522847 36.5522847,22 36,22 L35,22 L35,23 C35,23.5522847 34.5522847,24 34,24 C33.4477153,24 33,23.5522847 33,23 L33,22 L32,22 Z M36,26 C36.5522847,26 37,26.4477153 37,27 L37,32.999 C37,34.6558542 35.6568542,35.999 34,35.999 L20,35.999 C18.3431458,35.999 17,34.6558542 17,32.999 L17,22.999 C17,21.3421458 18.3431458,19.999 20,19.999 L28,19.999 C28.5522847,19.999 29,20.4467153 29,20.999 C29,21.5512847 28.5522847,21.999 28,21.999 L20.41,21.999 L26.3,27.879 C26.6888435,28.2601429 27.3111565,28.2601429 27.7,27.879 L30.17,25.409 C30.568288,25.0569925 31.1716937,25.0755848 31.5475544,25.4514456 C31.9234152,25.8273063 31.9420075,26.430712 31.59,26.829 L29.12,29.299 C27.9487298,30.4688135 26.0512702,30.4688135 24.88,29.299 L19,23.41 L19,33 C19,33.5522847 19.4477153,34 20,34 L34,34 C34.5522847,34 35,33.5522847 35,33 L35,27 C35,26.4477153 35.4477153,26 36,26 Z" id="Shape" fill="#17BEBB" fill-rule="nonzero"></path>
        </g>
    </g>
</svg>