<svg xmlns="http://www.w3.org/2000/svg" width="90" height="90" viewBox="0 0 90 90"><defs><clipPath id="qjp3a"><path fill="#fff" d="M45 0c24.853 0 45 20.147 45 45S69.853 90 45 90 0 69.853 0 45 20.147 0 45 0z"/></clipPath><clipPath id="qjp3b"><path fill="#fff" d="M45 18c14.912 0 27 12.088 27 27 0 14.911-12.088 27-27 27S18 59.91 18 45c0-14.912 12.088-27 27-27z"/></clipPath></defs><g><g opacity=".24"><path fill="#fff" d="M45 0c24.853 0 45 20.147 45 45S69.853 90 45 90 0 69.853 0 45 20.147 0 45 0z"/><path fill="none" stroke="#fff" stroke-miterlimit="20" stroke-width="2" d="M45 0c24.853 0 45 20.147 45 45S69.853 90 45 90 0 69.853 0 45 20.147 0 45 0z" clip-path="url(&quot;#qjp3a&quot;)"/></g><g><path fill="#fff" d="M45 18c14.912 0 27 12.088 27 27 0 14.911-12.088 27-27 27S18 59.91 18 45c0-14.912 12.088-27 27-27z"/><path fill="none" stroke="#fff" stroke-miterlimit="20" stroke-width="2" d="M45 18c14.912 0 27 12.088 27 27 0 14.911-12.088 27-27 27S18 59.91 18 45c0-14.912 12.088-27 27-27z" clip-path="url(&quot;#qjp3b&quot;)"/></g><g><path fill="#222" d="M50.905 42.809a2.566 2.566 0 0 1 0 4.44l-7.245 4.155a2.566 2.566 0 0 1-3.848-2.22v-8.34a2.565 2.565 0 0 1 3.848-2.25l7.245 4.155v.06z"/></g></g></svg>